# xmcd CD database file
#
# Track frame offsets:
#	150
#	18838
#	41644
#	66374
#	86879
#	111493
#	138193
#	165385
#	185997
#	202806
#	218029
#
# Disc length: 3117 seconds
#
# Revision: 0
# Processed by: cddbd v1.5.1PL2 Copyright (c) Steve Scherf et al.
# Submitted via: CDex 1.51
#
DISCID=9c0c2b0b
DTITLE=John Scott - Easy Living
DYEAR=2003
DGENRE=Jazz
TTITLE0=Prelude To A Kiss
TTITLE1=I Didn't Know What Time It Was
TTITLE2=Cheese Cake
TTITLE3=Easy Living
TTITLE4=Old Country
TTITLE5=Song For My Father
TTITLE6=Scoot's Boots
TTITLE7=I Got It Bad (And That Ain't Good)
TTITLE8=Lush Life
TTITLE9=Fly Me To The Moon
TTITLE10=Blues Walk
EXTD=YEAR: 2003
EXTT0=
EXTT1=
EXTT2=
EXTT3=
EXTT4=
EXTT5=
EXTT6=
EXTT7=
EXTT8=
EXTT9=
EXTT10=
PLAYORDER=
